<?xml version="1.0" encoding="UTF-8" standalone="no"?>
<!-- Created with Inkscape (http://www.inkscape.org/) -->

<svg
   xmlns:dc="http://purl.org/dc/elements/1.1/"
   xmlns:cc="http://creativecommons.org/ns#"
   xmlns:rdf="http://www.w3.org/1999/02/22-rdf-syntax-ns#"
   xmlns:svg="http://www.w3.org/2000/svg"
   xmlns="http://www.w3.org/2000/svg"
   xmlns:xlink="http://www.w3.org/1999/xlink"
   xmlns:sodipodi="http://sodipodi.sourceforge.net/DTD/sodipodi-0.dtd"
   xmlns:inkscape="http://www.inkscape.org/namespaces/inkscape"
   id="svg2"
   version="1.1"
   inkscape:version="0.48.5 r10040"
   width="601.565"
   height="601.565"
   xml:space="preserve"
   sodipodi:docname="icon.svg"
   inkscape:export-filename="/home/fabius/gits/window-corner-preview/window-corner-preview@fabiomereu.it/icon.png"
   inkscape:export-xdpi="19.15"
   inkscape:export-ydpi="19.15"><metadata
     id="metadata8"><rdf:RDF><cc:Work
         rdf:about=""><dc:format>image/svg+xml</dc:format><dc:type
           rdf:resource="http://purl.org/dc/dcmitype/StillImage" /><dc:title></dc:title></cc:Work></rdf:RDF></metadata><defs
     id="defs6"><clipPath
       clipPathUnits="userSpaceOnUse"
       id="clipPath18"><path
         d="m 0,869.743 846.084,0 L 846.084,0 0,0 0,869.743 z"
         id="path20"
         inkscape:connector-curvature="0" /></clipPath><clipPath
       clipPathUnits="userSpaceOnUse"
       id="clipPath26"><path
         d="m 6.24561,480.284 500.39239,0 0,-447.2674 -500.39239,0 0,447.2674 z"
         id="path28"
         inkscape:connector-curvature="0" /></clipPath><clipPath
       clipPathUnits="userSpaceOnUse"
       id="clipPath30"><path
         d="M 190.06,480.284 6.246,296.47 286.598,33.017 506.638,253.057 190.06,480.284 z"
         id="path32"
         inkscape:connector-curvature="0" /></clipPath><linearGradient
       x1="0"
       y1="0"
       x2="1"
       y2="0"
       gradientUnits="userSpaceOnUse"
       gradientTransform="matrix(184.23512,184.23512,184.23512,-184.23512,162.09717,180.41797)"
       spreadMethod="pad"
       id="linearGradient34"><stop
         style="stop-opacity:1;stop-color:#ffffff"
         offset="0"
         id="stop36" /><stop
         style="stop-opacity:1;stop-color:#000000"
         offset="1"
         id="stop38" /></linearGradient><clipPath
       clipPathUnits="userSpaceOnUse"
       id="clipPath78"><path
         d="m 95.6772,523.905 409.8738,0 0,-443.9519 -409.8738,0 0,443.9519 z"
         id="path80"
         inkscape:connector-curvature="0" /></clipPath><clipPath
       clipPathUnits="userSpaceOnUse"
       id="clipPath82"><path
         d="M 301.772,523.905 95.677,317.811 333.535,79.953 505.551,253.057 301.772,523.905 z"
         id="path84"
         inkscape:connector-curvature="0" /></clipPath><linearGradient
       x1="0"
       y1="0"
       x2="1"
       y2="0"
       gradientUnits="userSpaceOnUse"
       gradientTransform="matrix(183.00333,183.00333,183.00333,-183.00333,230.05615,214.33105)"
       spreadMethod="pad"
       id="linearGradient86"><stop
         style="stop-opacity:1;stop-color:#ffffff"
         offset="0"
         id="stop88" /><stop
         style="stop-opacity:1;stop-color:#000000"
         offset="1"
         id="stop90" /></linearGradient><linearGradient
       inkscape:collect="always"
       xlink:href="#linearGradient34"
       id="linearGradient3213"
       gradientUnits="userSpaceOnUse"
       gradientTransform="matrix(184.23512,184.23512,184.23512,-184.23512,162.09717,180.41797)"
       spreadMethod="pad"
       x1="0"
       y1="0"
       x2="1"
       y2="0" /><linearGradient
       inkscape:collect="always"
       xlink:href="#linearGradient86"
       id="linearGradient3215"
       gradientUnits="userSpaceOnUse"
       gradientTransform="matrix(183.00333,183.00333,183.00333,-183.00333,230.05615,214.33105)"
       spreadMethod="pad"
       x1="0"
       y1="0"
       x2="1"
       y2="0" /><linearGradient
       inkscape:collect="always"
       xlink:href="#linearGradient34"
       id="linearGradient4053"
       gradientUnits="userSpaceOnUse"
       gradientTransform="matrix(184.23512,184.23512,184.23512,-184.23512,162.09717,180.41797)"
       spreadMethod="pad"
       x1="0"
       y1="0"
       x2="1"
       y2="0" /><linearGradient
       inkscape:collect="always"
       xlink:href="#linearGradient86"
       id="linearGradient4055"
       gradientUnits="userSpaceOnUse"
       gradientTransform="matrix(183.00333,183.00333,183.00333,-183.00333,230.05615,214.33105)"
       spreadMethod="pad"
       x1="0"
       y1="0"
       x2="1"
       y2="0" /></defs><sodipodi:namedview
     pagecolor="#ffffff"
     bordercolor="#666666"
     borderopacity="1"
     objecttolerance="10"
     gridtolerance="10"
     guidetolerance="10"
     inkscape:pageopacity="0"
     inkscape:pageshadow="2"
     inkscape:window-width="1366"
     inkscape:window-height="672"
     id="namedview4"
     showgrid="false"
     fit-margin-top="0"
     fit-margin-left="0"
     fit-margin-right="0"
     fit-margin-bottom="0"
     inkscape:zoom="0.61398252"
     inkscape:cx="231.73886"
     inkscape:cy="328.46353"
     inkscape:window-x="0"
     inkscape:window-y="27"
     inkscape:window-maximized="1"
     inkscape:current-layer="g10" /><g
     id="g10"
     inkscape:groupmode="layer"
     inkscape:label="pixel77-free-vector-baby-monkey-1218"
     transform="matrix(1.25,0,0,-1.25,-5.5243874,854.04289)"><g
       id="g22"
       transform="matrix(0.95573377,0,0,0.95573377,-368.46366,-68.016505)"><g
         id="g24" /><g
         id="g40"
         transform="matrix(0.77114207,0,0,1.2590891,385.88501,93.69448)"><g
           clip-path="url(#clipPath26)"
           id="g42"
           style="opacity:0.11000103"><g
             id="g44"><g
               clip-path="url(#clipPath30)"
               id="g46"><g
                 id="g48"><g
                   id="g50"><path
                     d="M 190.06,480.284 6.246,296.47 286.598,33.017 506.638,253.057 190.06,480.284 z"
                     style="fill:url(#linearGradient4053);stroke:none"
                     id="path52"
                     inkscape:connector-curvature="0" /></g></g></g></g></g></g></g><g
       id="g54"
       transform="matrix(0.96825394,0,0,1,484.49527,441.50023)"><path
         d="m 0,0 c 0,-36.225 -29.364,-65.591 -65.592,-65.591 -36.226,0 -65.592,29.366 -65.592,65.591 0,36.225 29.366,65.591 65.592,65.591 C -29.364,65.591 0,36.225 0,0"
         style="fill:#fbca97;fill-opacity:1;fill-rule:nonzero;stroke:none"
         id="path56"
         inkscape:connector-curvature="0" /></g><g
       id="g58"
       transform="matrix(0.96825394,0,0,1,134.62755,441.50023)"><path
         d="m 0,0 c 0,-36.225 -29.364,-65.591 -65.591,-65.591 -36.227,0 -65.592,29.366 -65.592,65.591 0,36.225 29.365,65.591 65.592,65.591 C -29.364,65.591 0,36.225 0,0"
         style="fill:#fbca97;fill-opacity:1;fill-rule:nonzero;stroke:none"
         id="path60"
         inkscape:connector-curvature="0" /></g><g
       id="g62"
       transform="matrix(0.96825394,0,0,1,107.40954,441.50023)"><path
         d="m 0,0 c 0,-20.701 -16.78,-37.481 -37.481,-37.481 -20.701,0 -37.481,16.78 -37.481,37.481 0,20.701 16.78,37.481 37.481,37.481 C -16.78,37.481 0,20.701 0,0"
         style="fill:#d84f51;fill-opacity:1;fill-rule:nonzero;stroke:none"
         id="path64"
         inkscape:connector-curvature="0" /></g><g
       id="g66"
       transform="matrix(0.96825394,0,0,1,457.27639,441.50023)"><path
         d="m 0,0 c 0,-20.701 -16.781,-37.481 -37.48,-37.481 -20.7,0 -37.481,16.78 -37.481,37.481 0,20.701 16.781,37.481 37.481,37.481 C -16.781,37.481 0,20.701 0,0"
         style="fill:#d84f51;fill-opacity:1;fill-rule:nonzero;stroke:none"
         id="path68"
         inkscape:connector-curvature="0" /></g><g
       id="g70"
       transform="matrix(0.96825394,0,0,1,429.49205,441.50023)"><path
         d="m 0,0 c 0,-104.794 -84.955,-189.747 -189.747,-189.747 -104.793,0 -189.747,84.953 -189.747,189.747 0,104.795 84.954,189.747 189.747,189.747 C -84.955,189.747 0,104.795 0,0"
         style="fill:#762e33;fill-opacity:1;fill-rule:nonzero;stroke:none"
         id="path72"
         inkscape:connector-curvature="0" /></g><g
       id="g74"
       transform="matrix(0.81903888,0,0,0.89116526,-816.48958,238.06276)"><g
         id="g76" /><g
         id="g92"
         transform="translate(906.60622,-182.68456)"><g
           clip-path="url(#clipPath78)"
           id="g94"
           style="opacity:0.30000299"><g
             id="g96"><g
               clip-path="url(#clipPath82)"
               id="g98"><g
                 id="g100"><g
                   id="g102"><path
                     d="M 301.772,523.905 95.677,317.811 333.535,79.953 505.551,253.057 301.772,523.905 z"
                     style="fill:url(#linearGradient4055);stroke:none"
                     id="path104"
                     inkscape:connector-curvature="0" /></g></g></g></g></g></g></g><g
       id="g106"
       transform="matrix(0.96825394,0,0,1,397.1699,467.26833)"><path
         d="m 0,0 c 0,42.694 -34.612,77.304 -77.304,77.304 -34.649,0 -63.967,-22.799 -73.791,-54.213 -9.822,31.414 -39.141,54.213 -73.79,54.213 -42.692,0 -77.304,-34.61 -77.304,-77.304 0,-36.479 25.299,-66.978 59.287,-75.106 -11.548,-17.415 -18.292,-38.297 -18.292,-60.762 0,-60.808 49.294,-110.1 110.099,-110.1 60.806,0 110.1,49.292 110.1,110.1 0,22.465 -6.744,43.347 -18.291,60.762 C -25.302,-66.978 0,-36.479 0,0"
         style="fill:#fbca97;fill-opacity:1;fill-rule:nonzero;stroke:none"
         id="path108"
         inkscape:connector-curvature="0" /></g><g
       id="g110"
       transform="matrix(0.96825394,0,0,1,162.72298,610.74053)"><path
         d="M 0,0 C 0,0 67.028,39.247 163.072,72.042 L 112.191,18.635 184.156,36.021 171.629,0 l 29.51,0 0,-28.687 L 0,0 z"
         style="fill:#762e33;fill-opacity:1;fill-rule:nonzero;stroke:none"
         id="path112"
         inkscape:connector-curvature="0" /></g><g
       id="g114"
       transform="matrix(0.96825394,0,0,1,259.40886,298.60423)"><path
         d="m 0,0 c 0,-8.605 -4.735,-15.583 -10.574,-15.583 -5.838,0 -10.573,6.978 -10.573,15.583 0,8.606 4.735,15.584 10.573,15.584 C -4.735,15.584 0,8.606 0,0"
         style="fill:#d84f51;fill-opacity:1;fill-rule:nonzero;stroke:none"
         id="path116"
         inkscape:connector-curvature="0" /></g><g
       id="g118"
       transform="matrix(0.96825394,0,0,1,231.95121,467.26833)"><path
         d="m 0,0 c 0,-29.886 -24.222,-54.112 -54.112,-54.112 -29.89,0 -54.112,24.226 -54.112,54.112 0,29.886 24.222,54.112 54.112,54.112 C -24.222,54.112 0,29.886 0,0"
         style="fill:#f2906a;fill-opacity:1;fill-rule:nonzero;stroke:none"
         id="path120"
         inkscape:connector-curvature="0" /></g><g
       id="g122"
       transform="matrix(0.96825394,0,0,1,210.3239,467.26833)"><path
         d="m 0,0 c 0,-17.551 -14.225,-31.778 -31.775,-31.778 -17.551,0 -31.776,14.227 -31.776,31.778 0,17.551 14.225,31.778 31.776,31.778 C -14.225,31.778 0,17.551 0,0"
         style="fill:#3e1d15;fill-opacity:1;fill-rule:nonzero;stroke:none"
         id="path124"
         inkscape:connector-curvature="0" /></g><g
       id="g126"
       transform="matrix(0.96825394,0,0,1,203.13858,467.26833)"><path
         d="m 0,0 c 0,-13.451 -10.903,-24.356 -24.354,-24.356 -13.452,0 -24.355,10.905 -24.355,24.356 0,13.451 10.903,24.356 24.355,24.356 C -10.903,24.356 0,13.451 0,0"
         style="fill:#762e33;fill-opacity:1;fill-rule:nonzero;stroke:none"
         id="path128"
         inkscape:connector-curvature="0" /></g><g
       id="g130"
       transform="matrix(0.96825394,0,0,1,199.58984,475.78053)"><path
         d="m 0,0 c 0,-10.61 -8.602,-19.211 -19.211,-19.211 -10.611,0 -19.212,8.601 -19.212,19.211 0,10.612 8.601,19.214 19.212,19.214 C -8.602,19.214 0,10.612 0,0"
         style="fill:#3e1d15;fill-opacity:1;fill-rule:nonzero;stroke:none"
         id="path132"
         inkscape:connector-curvature="0" /></g><g
       id="g134"
       transform="matrix(0.96825394,0,0,1,203.13858,476.83523)"><path
         d="m 0,0 c 0,-6.563 -5.321,-11.884 -11.882,-11.884 -6.566,0 -11.882,5.321 -11.882,11.884 0,6.561 5.316,11.882 11.882,11.882 C -5.321,11.882 0,6.561 0,0"
         style="fill:#f9f6ea;fill-opacity:1;fill-rule:nonzero;stroke:none"
         id="path136"
         inkscape:connector-curvature="0" /></g><g
       id="g138"
       transform="matrix(0.96825394,0,0,1,378.01009,467.26833)"><path
         d="m 0,0 c 0,-29.886 -24.222,-54.112 -54.112,-54.112 -29.89,0 -54.112,24.226 -54.112,54.112 0,29.886 24.222,54.112 54.112,54.112 C -24.222,54.112 0,29.886 0,0"
         style="fill:#f2906a;fill-opacity:1;fill-rule:nonzero;stroke:none"
         id="path140"
         inkscape:connector-curvature="0" /></g><g
       id="g142"
       transform="matrix(0.96825394,0,0,1,356.3822,467.26833)"><path
         d="m 0,0 c 0,-17.551 -14.224,-31.778 -31.775,-31.778 -17.551,0 -31.776,14.227 -31.776,31.778 0,17.551 14.225,31.778 31.776,31.778 C -14.224,31.778 0,17.551 0,0"
         style="fill:#3e1d15;fill-opacity:1;fill-rule:nonzero;stroke:none"
         id="path144"
         inkscape:connector-curvature="0" /></g><g
       id="g146"
       transform="matrix(0.96825394,0,0,1,349.19688,467.26833)"><path
         d="m 0,0 c 0,-13.451 -10.902,-24.356 -24.354,-24.356 -13.452,0 -24.355,10.905 -24.355,24.356 0,13.451 10.903,24.356 24.355,24.356 C -10.902,24.356 0,13.451 0,0"
         style="fill:#762e33;fill-opacity:1;fill-rule:nonzero;stroke:none"
         id="path148"
         inkscape:connector-curvature="0" /></g><g
       id="g150"
       transform="matrix(0.96825394,0,0,1,345.64824,475.78053)"><path
         d="m 0,0 c 0,-10.61 -8.601,-19.211 -19.212,-19.211 -10.609,0 -19.211,8.601 -19.211,19.211 0,10.612 8.602,19.214 19.211,19.214 C -8.601,19.214 0,10.612 0,0"
         style="fill:#3e1d15;fill-opacity:1;fill-rule:nonzero;stroke:none"
         id="path152"
         inkscape:connector-curvature="0" /></g><g
       id="g154"
       transform="matrix(0.96825394,0,0,1,349.19688,476.83523)"><path
         d="m 0,0 c 0,-6.563 -5.321,-11.884 -11.882,-11.884 -6.565,0 -11.882,5.321 -11.882,11.884 0,6.561 5.317,11.882 11.882,11.882 C -5.321,11.882 0,6.561 0,0"
         style="fill:#f9f6ea;fill-opacity:1;fill-rule:nonzero;stroke:none"
         id="path156"
         inkscape:connector-curvature="0" /></g><g
       id="g158"
       transform="matrix(0.96825394,0,0,1,267.18374,383.29373)"><path
         d="m 0,0 c 0,-2.682 -8.776,-4.854 -19.596,-4.854 -10.821,0 -19.596,2.172 -19.596,4.854 0,2.679 8.775,4.852 19.596,4.852 C -8.776,4.852 0,2.679 0,0"
         style="fill:#f2906a;fill-opacity:1;fill-rule:nonzero;stroke:none"
         id="path160"
         inkscape:connector-curvature="0" /></g></g></svg>